<mxfile host="app.diagrams.net" modified="2023-05-02T22:21:26.687Z" agent="Mozilla/5.0 (X11; Ubuntu; Linux x86_64; rv:109.0) Gecko/20100101 Firefox/112.0" etag="fEvC15AkRe8ejfr0zOwE" version="21.1.9" type="device">
  <diagram id="ORigrDGm8tUBCMDNpBpG" name="Page-1">
    <mxGraphModel dx="1376" dy="856" grid="1" gridSize="10" guides="1" tooltips="1" connect="1" arrows="1" fold="1" page="1" pageScale="1" pageWidth="3800" pageHeight="1400" math="0" shadow="0">
      <root>
        <mxCell id="0" />
        <mxCell id="1" parent="0" />
        <mxCell id="eY4qlP63KUZkthmV_fjE-22" value="" style="whiteSpace=wrap;html=1;aspect=fixed;" vertex="1" parent="1">
          <mxGeometry x="870" y="480" width="120" height="120" as="geometry" />
        </mxCell>
        <mxCell id="G6IWTxJexhlrJxSiTK5B-1" value="Radio" style="rounded=0;whiteSpace=wrap;html=1;" parent="1" vertex="1">
          <mxGeometry x="1240" y="250" width="120" height="60" as="geometry" />
        </mxCell>
        <mxCell id="G6IWTxJexhlrJxSiTK5B-2" value="OHIS Radio Adapter" style="rounded=0;whiteSpace=wrap;html=1;strokeWidth=1;" parent="1" vertex="1">
          <mxGeometry x="1040" y="250" width="120" height="60" as="geometry" />
        </mxCell>
        <mxCell id="G6IWTxJexhlrJxSiTK5B-3" value="" style="endArrow=classic;html=1;rounded=0;" parent="1" edge="1">
          <mxGeometry width="50" height="50" relative="1" as="geometry">
            <mxPoint x="1160" y="260" as="sourcePoint" />
            <mxPoint x="1240" y="260" as="targetPoint" />
          </mxGeometry>
        </mxCell>
        <mxCell id="G6IWTxJexhlrJxSiTK5B-4" value="&lt;div&gt;Mic&lt;/div&gt;" style="edgeLabel;html=1;align=center;verticalAlign=middle;resizable=0;points=[];" parent="G6IWTxJexhlrJxSiTK5B-3" vertex="1" connectable="0">
          <mxGeometry x="-0.5429" relative="1" as="geometry">
            <mxPoint x="22" y="-10" as="offset" />
          </mxGeometry>
        </mxCell>
        <mxCell id="G6IWTxJexhlrJxSiTK5B-5" value="" style="endArrow=classic;html=1;rounded=0;" parent="1" edge="1">
          <mxGeometry width="50" height="50" relative="1" as="geometry">
            <mxPoint x="1240" y="300" as="sourcePoint" />
            <mxPoint x="1160" y="300" as="targetPoint" />
          </mxGeometry>
        </mxCell>
        <mxCell id="G6IWTxJexhlrJxSiTK5B-6" value="Headphones" style="edgeLabel;html=1;align=center;verticalAlign=middle;resizable=0;points=[];" parent="G6IWTxJexhlrJxSiTK5B-5" vertex="1" connectable="0">
          <mxGeometry x="-0.5429" relative="1" as="geometry">
            <mxPoint x="-22" y="-10" as="offset" />
          </mxGeometry>
        </mxCell>
        <mxCell id="G6IWTxJexhlrJxSiTK5B-7" value="" style="endArrow=classic;html=1;rounded=0;" parent="1" edge="1">
          <mxGeometry width="50" height="50" relative="1" as="geometry">
            <mxPoint x="1160" y="280" as="sourcePoint" />
            <mxPoint x="1240" y="280" as="targetPoint" />
          </mxGeometry>
        </mxCell>
        <mxCell id="G6IWTxJexhlrJxSiTK5B-8" value="PTT" style="edgeLabel;html=1;align=center;verticalAlign=middle;resizable=0;points=[];" parent="G6IWTxJexhlrJxSiTK5B-7" vertex="1" connectable="0">
          <mxGeometry x="-0.5429" relative="1" as="geometry">
            <mxPoint x="22" y="-10" as="offset" />
          </mxGeometry>
        </mxCell>
        <mxCell id="G6IWTxJexhlrJxSiTK5B-19" value="&lt;div&gt;OHIS User Adapter&lt;/div&gt;" style="rounded=0;whiteSpace=wrap;html=1;" parent="1" vertex="1">
          <mxGeometry x="720" y="250" width="120" height="60" as="geometry" />
        </mxCell>
        <mxCell id="G6IWTxJexhlrJxSiTK5B-20" value="" style="endArrow=classic;startArrow=classic;html=1;rounded=1;fontSize=29;" parent="1" edge="1">
          <mxGeometry width="50" height="50" relative="1" as="geometry">
            <mxPoint x="840" y="280" as="sourcePoint" />
            <mxPoint x="1040" y="280" as="targetPoint" />
          </mxGeometry>
        </mxCell>
        <mxCell id="G6IWTxJexhlrJxSiTK5B-26" value="" style="endArrow=classic;html=1;rounded=1;fontSize=12;" parent="1" edge="1">
          <mxGeometry width="50" height="50" relative="1" as="geometry">
            <mxPoint x="680" y="300" as="sourcePoint" />
            <mxPoint x="720" y="290" as="targetPoint" />
          </mxGeometry>
        </mxCell>
        <mxCell id="G6IWTxJexhlrJxSiTK5B-27" value="" style="endArrow=classic;html=1;rounded=1;fontSize=12;startArrow=classic;startFill=1;" parent="1" edge="1">
          <mxGeometry width="50" height="50" relative="1" as="geometry">
            <mxPoint x="720" y="270" as="sourcePoint" />
            <mxPoint x="680" y="260" as="targetPoint" />
          </mxGeometry>
        </mxCell>
        <mxCell id="G6IWTxJexhlrJxSiTK5B-28" value="" style="shape=image;html=1;verticalAlign=top;verticalLabelPosition=bottom;labelBackgroundColor=#ffffff;imageAspect=0;aspect=fixed;image=https://cdn1.iconfinder.com/data/icons/bootstrap-vol-3/16/headset-128.png;fillStyle=solid;fontSize=12;fillColor=#050505;flipH=1;" parent="1" vertex="1">
          <mxGeometry x="640" y="240" width="40" height="40" as="geometry" />
        </mxCell>
        <mxCell id="G6IWTxJexhlrJxSiTK5B-29" value="&lt;font style=&quot;font-size: 20px;&quot;&gt;PTT&lt;/font&gt;" style="text;html=1;strokeColor=none;fillColor=none;align=center;verticalAlign=middle;whiteSpace=wrap;rounded=0;fillStyle=solid;fontSize=12;" parent="1" vertex="1">
          <mxGeometry x="640" y="290" width="40" height="30" as="geometry" />
        </mxCell>
        <mxCell id="G6IWTxJexhlrJxSiTK5B-38" value="" style="shape=image;html=1;verticalAlign=top;verticalLabelPosition=bottom;labelBackgroundColor=#ffffff;imageAspect=0;aspect=fixed;image=https://cdn1.iconfinder.com/data/icons/bootstrap-vol-3/16/headset-128.png;fillStyle=solid;fontSize=12;fillColor=#050505;flipH=1;" parent="1" vertex="1">
          <mxGeometry x="780" y="170" width="60" height="60" as="geometry" />
        </mxCell>
        <mxCell id="G6IWTxJexhlrJxSiTK5B-39" value="&lt;font style=&quot;font-size: 14px;&quot;&gt;OHIS Compliant Headset&lt;/font&gt;" style="text;html=1;strokeColor=none;fillColor=none;align=right;verticalAlign=middle;whiteSpace=wrap;rounded=0;fillStyle=solid;fontSize=12;" parent="1" vertex="1">
          <mxGeometry x="600" y="190" width="180" height="20" as="geometry" />
        </mxCell>
        <mxCell id="G6IWTxJexhlrJxSiTK5B-40" value="" style="endArrow=classic;startArrow=classic;html=1;rounded=1;fontSize=29;exitX=1;exitY=0.5;exitDx=0;exitDy=0;" parent="1" edge="1" source="G6IWTxJexhlrJxSiTK5B-42">
          <mxGeometry width="50" height="50" relative="1" as="geometry">
            <mxPoint x="840" y="390" as="sourcePoint" />
            <mxPoint x="1040" y="290" as="targetPoint" />
          </mxGeometry>
        </mxCell>
        <mxCell id="G6IWTxJexhlrJxSiTK5B-41" value="" style="group" parent="1" vertex="1" connectable="0">
          <mxGeometry x="890" y="120" width="100" height="40" as="geometry" />
        </mxCell>
        <mxCell id="G6IWTxJexhlrJxSiTK5B-9" value="&lt;font style=&quot;font-size: 29px;&quot;&gt;OHIS&lt;/font&gt;" style="text;html=1;strokeColor=none;fillColor=none;align=center;verticalAlign=middle;whiteSpace=wrap;rounded=0;" parent="G6IWTxJexhlrJxSiTK5B-41" vertex="1">
          <mxGeometry x="10" width="80" height="40" as="geometry" />
        </mxCell>
        <mxCell id="G6IWTxJexhlrJxSiTK5B-13" value="" style="endArrow=none;html=1;rounded=1;entryX=0;entryY=1;entryDx=0;entryDy=0;strokeWidth=2;" parent="G6IWTxJexhlrJxSiTK5B-41" target="G6IWTxJexhlrJxSiTK5B-16" edge="1">
          <mxGeometry width="50" height="50" relative="1" as="geometry">
            <mxPoint x="60" y="40" as="sourcePoint" />
            <mxPoint x="90" y="40" as="targetPoint" />
            <Array as="points">
              <mxPoint x="10" y="40" />
              <mxPoint x="10" />
              <mxPoint x="90" />
            </Array>
          </mxGeometry>
        </mxCell>
        <mxCell id="G6IWTxJexhlrJxSiTK5B-15" value="" style="rounded=0;whiteSpace=wrap;html=1;fillStyle=solid;fillColor=#050505;" parent="G6IWTxJexhlrJxSiTK5B-41" vertex="1">
          <mxGeometry y="10" width="10" height="20" as="geometry" />
        </mxCell>
        <mxCell id="G6IWTxJexhlrJxSiTK5B-16" value="" style="rounded=0;whiteSpace=wrap;html=1;fillStyle=solid;fillColor=#050505;" parent="G6IWTxJexhlrJxSiTK5B-41" vertex="1">
          <mxGeometry x="90" y="10" width="10" height="20" as="geometry" />
        </mxCell>
        <mxCell id="G6IWTxJexhlrJxSiTK5B-17" value="" style="rounded=0;whiteSpace=wrap;html=1;fillStyle=solid;fillColor=#050505;" parent="G6IWTxJexhlrJxSiTK5B-41" vertex="1">
          <mxGeometry x="40" y="35" width="20" height="5" as="geometry" />
        </mxCell>
        <mxCell id="G6IWTxJexhlrJxSiTK5B-42" value="&lt;div&gt;OHIS User Adapter&lt;/div&gt;" style="rounded=0;whiteSpace=wrap;html=1;" parent="1" vertex="1">
          <mxGeometry x="720" y="350" width="120" height="60" as="geometry" />
        </mxCell>
        <mxCell id="G6IWTxJexhlrJxSiTK5B-43" value="" style="shape=image;html=1;verticalAlign=top;verticalLabelPosition=bottom;labelBackgroundColor=#ffffff;imageAspect=0;aspect=fixed;image=https://cdn4.iconfinder.com/data/icons/essential-app-1/16/mic-microphone-record-speak-128.png;fillStyle=solid;fontSize=17;fillColor=#050505;" parent="1" vertex="1">
          <mxGeometry x="640" y="330" width="40" height="40" as="geometry" />
        </mxCell>
        <mxCell id="G6IWTxJexhlrJxSiTK5B-45" value="&lt;font style=&quot;font-size: 19px;&quot;&gt;PTT&lt;/font&gt;" style="text;html=1;strokeColor=none;fillColor=none;align=center;verticalAlign=middle;whiteSpace=wrap;rounded=0;fillStyle=solid;fontSize=12;" parent="1" vertex="1">
          <mxGeometry x="600" y="360" width="40" height="40" as="geometry" />
        </mxCell>
        <mxCell id="G6IWTxJexhlrJxSiTK5B-46" value="" style="endArrow=classic;html=1;rounded=1;fontSize=12;" parent="1" edge="1">
          <mxGeometry width="50" height="50" relative="1" as="geometry">
            <mxPoint x="720" y="390" as="sourcePoint" />
            <mxPoint x="680" y="410" as="targetPoint" />
          </mxGeometry>
        </mxCell>
        <mxCell id="G6IWTxJexhlrJxSiTK5B-47" value="" style="endArrow=classic;html=1;rounded=1;fontSize=12;" parent="1" edge="1">
          <mxGeometry width="50" height="50" relative="1" as="geometry">
            <mxPoint x="680" y="350" as="sourcePoint" />
            <mxPoint x="720" y="370" as="targetPoint" />
          </mxGeometry>
        </mxCell>
        <mxCell id="G6IWTxJexhlrJxSiTK5B-48" value="" style="endArrow=classic;html=1;rounded=1;fontSize=12;" parent="1" edge="1">
          <mxGeometry width="50" height="50" relative="1" as="geometry">
            <mxPoint x="640" y="379.71" as="sourcePoint" />
            <mxPoint x="720" y="379.71" as="targetPoint" />
          </mxGeometry>
        </mxCell>
        <mxCell id="G6IWTxJexhlrJxSiTK5B-49" value="" style="endArrow=classic;startArrow=classic;html=1;rounded=1;fontSize=29;exitX=1;exitY=0.5;exitDx=0;exitDy=0;" parent="1" edge="1" source="G6IWTxJexhlrJxSiTK5B-38">
          <mxGeometry width="50" height="50" relative="1" as="geometry">
            <mxPoint x="840" y="210" as="sourcePoint" />
            <mxPoint x="1040" y="270" as="targetPoint" />
          </mxGeometry>
        </mxCell>
        <mxCell id="G6IWTxJexhlrJxSiTK5B-50" value="OHIS Compliant Radio" style="rounded=0;whiteSpace=wrap;html=1;" parent="1" vertex="1">
          <mxGeometry x="1040" y="170" width="120" height="60" as="geometry" />
        </mxCell>
        <mxCell id="G6IWTxJexhlrJxSiTK5B-51" value="" style="endArrow=classic;startArrow=classic;html=1;rounded=1;fontSize=29;" parent="1" edge="1">
          <mxGeometry width="50" height="50" relative="1" as="geometry">
            <mxPoint x="840" y="270" as="sourcePoint" />
            <mxPoint x="1040" y="200" as="targetPoint" />
          </mxGeometry>
        </mxCell>
        <mxCell id="G6IWTxJexhlrJxSiTK5B-52" value="" style="endArrow=classic;startArrow=classic;html=1;rounded=1;fontSize=29;" parent="1" edge="1">
          <mxGeometry width="50" height="50" relative="1" as="geometry">
            <mxPoint x="840" y="370" as="sourcePoint" />
            <mxPoint x="1040" y="210" as="targetPoint" />
          </mxGeometry>
        </mxCell>
        <mxCell id="G6IWTxJexhlrJxSiTK5B-53" value="" style="endArrow=classic;startArrow=classic;html=1;rounded=1;fontSize=29;" parent="1" edge="1">
          <mxGeometry width="50" height="50" relative="1" as="geometry">
            <mxPoint x="840" y="190" as="sourcePoint" />
            <mxPoint x="1040" y="190" as="targetPoint" />
          </mxGeometry>
        </mxCell>
        <mxCell id="G6IWTxJexhlrJxSiTK5B-54" value="" style="shape=image;html=1;verticalAlign=top;verticalLabelPosition=bottom;labelBackgroundColor=#ffffff;imageAspect=0;aspect=fixed;image=https://cdn4.iconfinder.com/data/icons/essential-app-2/16/volume-sound-speaker-lound-128.png;fillStyle=solid;strokeWidth=4;fontSize=20;fillColor=#050505;" parent="1" vertex="1">
          <mxGeometry x="640" y="390" width="40" height="40" as="geometry" />
        </mxCell>
        <mxCell id="xVc1VgOF1Z60hAzjhaap-1" value="User Devices" style="text;html=1;strokeColor=none;fillColor=none;align=center;verticalAlign=middle;whiteSpace=wrap;rounded=0;fontSize=21;" parent="1" vertex="1">
          <mxGeometry x="640" y="120" width="200" height="30" as="geometry" />
        </mxCell>
        <mxCell id="xVc1VgOF1Z60hAzjhaap-2" value="Radio Devices" style="text;html=1;strokeColor=none;fillColor=none;align=center;verticalAlign=middle;whiteSpace=wrap;rounded=0;fontSize=21;" parent="1" vertex="1">
          <mxGeometry x="1040" y="120" width="200" height="30" as="geometry" />
        </mxCell>
        <mxCell id="eY4qlP63KUZkthmV_fjE-1" value="Radio" style="rounded=0;whiteSpace=wrap;html=1;" vertex="1" parent="1">
          <mxGeometry x="1240" y="350" width="120" height="60" as="geometry" />
        </mxCell>
        <mxCell id="eY4qlP63KUZkthmV_fjE-2" value="OHIS Radio Adapter" style="rounded=0;whiteSpace=wrap;html=1;strokeWidth=1;" vertex="1" parent="1">
          <mxGeometry x="1040" y="350" width="120" height="60" as="geometry" />
        </mxCell>
        <mxCell id="eY4qlP63KUZkthmV_fjE-3" value="" style="endArrow=classic;html=1;rounded=0;" edge="1" parent="1">
          <mxGeometry width="50" height="50" relative="1" as="geometry">
            <mxPoint x="1160" y="360" as="sourcePoint" />
            <mxPoint x="1240" y="360" as="targetPoint" />
          </mxGeometry>
        </mxCell>
        <mxCell id="eY4qlP63KUZkthmV_fjE-4" value="&lt;div&gt;Mic&lt;/div&gt;" style="edgeLabel;html=1;align=center;verticalAlign=middle;resizable=0;points=[];" vertex="1" connectable="0" parent="eY4qlP63KUZkthmV_fjE-3">
          <mxGeometry x="-0.5429" relative="1" as="geometry">
            <mxPoint x="22" y="-10" as="offset" />
          </mxGeometry>
        </mxCell>
        <mxCell id="eY4qlP63KUZkthmV_fjE-5" value="" style="endArrow=classic;html=1;rounded=0;" edge="1" parent="1">
          <mxGeometry width="50" height="50" relative="1" as="geometry">
            <mxPoint x="1240" y="400" as="sourcePoint" />
            <mxPoint x="1160" y="400" as="targetPoint" />
          </mxGeometry>
        </mxCell>
        <mxCell id="eY4qlP63KUZkthmV_fjE-6" value="Headphones" style="edgeLabel;html=1;align=center;verticalAlign=middle;resizable=0;points=[];" vertex="1" connectable="0" parent="eY4qlP63KUZkthmV_fjE-5">
          <mxGeometry x="-0.5429" relative="1" as="geometry">
            <mxPoint x="-22" y="-10" as="offset" />
          </mxGeometry>
        </mxCell>
        <mxCell id="eY4qlP63KUZkthmV_fjE-7" value="" style="endArrow=classic;html=1;rounded=0;" edge="1" parent="1">
          <mxGeometry width="50" height="50" relative="1" as="geometry">
            <mxPoint x="1160" y="380" as="sourcePoint" />
            <mxPoint x="1240" y="380" as="targetPoint" />
          </mxGeometry>
        </mxCell>
        <mxCell id="eY4qlP63KUZkthmV_fjE-8" value="PTT" style="edgeLabel;html=1;align=center;verticalAlign=middle;resizable=0;points=[];" vertex="1" connectable="0" parent="eY4qlP63KUZkthmV_fjE-7">
          <mxGeometry x="-0.5429" relative="1" as="geometry">
            <mxPoint x="22" y="-10" as="offset" />
          </mxGeometry>
        </mxCell>
        <mxCell id="eY4qlP63KUZkthmV_fjE-9" value="" style="endArrow=classic;startArrow=classic;html=1;rounded=1;fontSize=29;exitX=1;exitY=0.75;exitDx=0;exitDy=0;entryX=0;entryY=0.5;entryDx=0;entryDy=0;" edge="1" parent="1" source="G6IWTxJexhlrJxSiTK5B-19" target="eY4qlP63KUZkthmV_fjE-2">
          <mxGeometry width="50" height="50" relative="1" as="geometry">
            <mxPoint x="840" y="330" as="sourcePoint" />
            <mxPoint x="1050" y="290" as="targetPoint" />
          </mxGeometry>
        </mxCell>
        <mxCell id="eY4qlP63KUZkthmV_fjE-10" value="" style="endArrow=classic;startArrow=classic;html=1;rounded=1;fontSize=29;" edge="1" parent="1">
          <mxGeometry width="50" height="50" relative="1" as="geometry">
            <mxPoint x="840" y="390" as="sourcePoint" />
            <mxPoint x="1040" y="390" as="targetPoint" />
          </mxGeometry>
        </mxCell>
        <mxCell id="eY4qlP63KUZkthmV_fjE-11" value="" style="endArrow=classic;startArrow=classic;html=1;rounded=1;fontSize=29;entryX=0;entryY=0.25;entryDx=0;entryDy=0;exitX=1;exitY=0.75;exitDx=0;exitDy=0;" edge="1" parent="1" source="G6IWTxJexhlrJxSiTK5B-38" target="eY4qlP63KUZkthmV_fjE-2">
          <mxGeometry width="50" height="50" relative="1" as="geometry">
            <mxPoint x="860" y="230" as="sourcePoint" />
            <mxPoint x="1050" y="405" as="targetPoint" />
          </mxGeometry>
        </mxCell>
        <mxCell id="eY4qlP63KUZkthmV_fjE-16" value="" style="group" vertex="1" connectable="0" parent="1">
          <mxGeometry x="880" y="520" width="100" height="80" as="geometry" />
        </mxCell>
        <mxCell id="eY4qlP63KUZkthmV_fjE-17" value="&lt;font style=&quot;font-size: 29px;&quot;&gt;OHIS&lt;/font&gt;" style="text;html=1;strokeColor=none;fillColor=none;align=center;verticalAlign=middle;whiteSpace=wrap;rounded=0;" vertex="1" parent="eY4qlP63KUZkthmV_fjE-16">
          <mxGeometry x="10" width="80" height="40" as="geometry" />
        </mxCell>
        <mxCell id="eY4qlP63KUZkthmV_fjE-18" value="" style="endArrow=none;html=1;rounded=1;entryX=0;entryY=1;entryDx=0;entryDy=0;strokeWidth=2;" edge="1" parent="eY4qlP63KUZkthmV_fjE-16" target="eY4qlP63KUZkthmV_fjE-20">
          <mxGeometry width="50" height="50" relative="1" as="geometry">
            <mxPoint x="60" y="40" as="sourcePoint" />
            <mxPoint x="90" y="40" as="targetPoint" />
            <Array as="points">
              <mxPoint x="10" y="40" />
              <mxPoint x="10" />
              <mxPoint x="90" />
            </Array>
          </mxGeometry>
        </mxCell>
        <mxCell id="eY4qlP63KUZkthmV_fjE-19" value="" style="rounded=0;whiteSpace=wrap;html=1;fillStyle=solid;fillColor=#050505;" vertex="1" parent="eY4qlP63KUZkthmV_fjE-16">
          <mxGeometry y="10" width="10" height="20" as="geometry" />
        </mxCell>
        <mxCell id="eY4qlP63KUZkthmV_fjE-20" value="" style="rounded=0;whiteSpace=wrap;html=1;fillStyle=solid;fillColor=#050505;" vertex="1" parent="eY4qlP63KUZkthmV_fjE-16">
          <mxGeometry x="90" y="10" width="10" height="20" as="geometry" />
        </mxCell>
        <mxCell id="eY4qlP63KUZkthmV_fjE-21" value="" style="rounded=0;whiteSpace=wrap;html=1;fillStyle=solid;fillColor=#050505;" vertex="1" parent="eY4qlP63KUZkthmV_fjE-16">
          <mxGeometry x="40" y="35" width="20" height="5" as="geometry" />
        </mxCell>
      </root>
    </mxGraphModel>
  </diagram>
</mxfile>
